<?xml version="1.0" standalone="no"?>
<svg xmlns="http://www.w3.org/2000/svg" width="24" height="24"><rect width="24" height="24" opacity="0"></rect><g><path d="M6 1.01Q5.18 1.01 4.5 1.4Q3.82 1.8 3.41 2.5Q3 3.19 3 4.01L3 19.99Q3 20.81 3.41 21.49Q3.82 22.18 4.5 22.58Q5.18 22.99 6 22.99L18 22.99Q18.82 22.99 19.5 22.58Q20.18 22.18 20.59 21.49Q21 20.81 21 19.99L21 4.01Q21 3.19 20.59 2.5Q20.18 1.8 19.5 1.4Q18.82 1.01 18 1.01L6 1.01ZM19.51 19.99Q19.51 20.62 19.07 21.06Q18.62 21.5 18 21.5L6 21.5Q5.38 21.5 4.94 21.06Q4.51 20.62 4.51 19.99L4.51 4.01Q4.51 3.38 4.94 2.94Q5.38 2.5 6 2.5L18 2.5Q18.62 2.5 19.07 2.94Q19.51 3.38 19.51 4.01L19.51 19.99ZM7.51 6.26Q7.2 6.26 6.98 6.48Q6.77 6.7 6.77 7.01Q6.77 7.32 6.98 7.54Q7.2 7.75 7.51 7.75L16.46 7.75Q16.78 7.75 16.99 7.54Q17.21 7.32 17.21 7.01Q17.21 6.7 16.99 6.48Q16.78 6.26 16.46 6.26L7.51 6.26ZM7.51 11.28Q7.2 11.28 6.98 11.5Q6.77 11.71 6.77 12.02Q6.77 12.34 6.98 12.55Q7.2 12.77 7.51 12.77L16.46 12.77Q16.78 12.77 16.99 12.55Q17.21 12.34 17.21 12.02Q17.21 11.71 16.99 11.5Q16.78 11.28 16.46 11.28L7.51 11.28ZM7.51 16.25Q7.2 16.25 6.98 16.48Q6.77 16.7 6.77 17.02Q6.77 17.33 6.98 17.54Q7.2 17.76 7.51 17.76L11.98 17.76Q12.29 17.76 12.5 17.54Q12.72 17.33 12.72 17.02Q12.72 16.7 12.52 16.48Q12.31 16.25 12 16.25L7.51 16.25Z" fill="rgba(0,0,0,0.9019607843137255)"></path></g></svg>