<?xml version="1.0" standalone="no"?><!DOCTYPE svg PUBLIC "-//W3C//DTD SVG 1.1//EN" "http://www.w3.org/Graphics/SVG/1.1/DTD/svg11.dtd"><svg t="1731304880990" class="icon" viewBox="0 0 1024 1024" version="1.1" xmlns="http://www.w3.org/2000/svg" p-id="22160" xmlns:xlink="http://www.w3.org/1999/xlink" width="200" height="200"><path d="M123.6 216.74v125.04h55V216.74c0-20.77 16.9-37.66 37.66-37.66H341.3v-55H216.26c-51.09-0.01-92.66 41.56-92.66 92.66zM807.74 124.07H682.7v55h125.04c20.77 0 37.66 16.9 37.66 37.66v125.04h55V216.74c0-51.1-41.57-92.67-92.66-92.67zM178.6 807.26V682.23h-55v125.04c0 51.09 41.57 92.66 92.66 92.66H341.3v-55H216.26c-20.77 0-37.66-16.9-37.66-37.67zM845.4 807.26c0 20.77-16.9 37.66-37.66 37.66H682.7v55h125.04c51.1 0 92.66-41.57 92.66-92.66V682.23h-55v125.03z" fill="#ffffff" p-id="22161"></path><path d="M738.6 264.38L209.72 480.62c-5.02 2.05-5.13 9.12-0.18 11.33l122 62.13 221.14-97.28-99.05 220.27 61.1 122.57c2.17 4.97 9.24 4.91 11.33-0.09l220.55-527.09c2.12-5.06-2.94-10.16-8.01-8.08z" fill="#ffffff" p-id="22162"></path></svg>