<?xml version="1.0" standalone="no"?><!DOCTYPE svg PUBLIC "-//W3C//DTD SVG 1.1//EN" "http://www.w3.org/Graphics/SVG/1.1/DTD/svg11.dtd"><svg t="1731309854231" class="icon" viewBox="0 0 1024 1024" version="1.1" xmlns="http://www.w3.org/2000/svg" p-id="45797" xmlns:xlink="http://www.w3.org/1999/xlink" width="200" height="200"><path d="M394.24 245.76h230.4c20.48 0 35.84-15.36 35.84-35.84v-20.48c0-20.48-15.36-35.84-35.84-35.84H394.24c-20.48 0-35.84 15.36-35.84 35.84V204.8c0 25.6 15.36 40.96 35.84 40.96z" fill="#1296db" p-id="45798"></path><path d="M768 225.28h-61.44c-5.12 40.96-35.84 66.56-71.68 66.56H389.12c-40.96 0-71.68-30.72-71.68-66.56H250.88C168.96 225.28 102.4 291.84 102.4 373.76v358.4c0 81.92 66.56 148.48 148.48 148.48H768c81.92 0 148.48-66.56 148.48-148.48v-358.4c0-81.92-66.56-148.48-148.48-148.48z m-97.28 358.4c0 10.24-10.24 20.48-20.48 20.48H563.2v81.92c0 10.24-10.24 20.48-20.48 20.48H476.16c-10.24 0-20.48-10.24-20.48-20.48v-87.04H373.76c-10.24 0-20.48-10.24-20.48-20.48V512c0-10.24 10.24-20.48 20.48-20.48h81.92V414.72c0-10.24 10.24-20.48 20.48-20.48h61.44c10.24 0 20.48 10.24 20.48 20.48v81.92h81.92c10.24 0 20.48 10.24 20.48 20.48l10.24 66.56z" fill="#1296db" p-id="45799"></path></svg>