<?xml version="1.0" standalone="no"?><!DOCTYPE svg PUBLIC "-//W3C//DTD SVG 1.1//EN" "http://www.w3.org/Graphics/SVG/1.1/DTD/svg11.dtd"><svg t="1731304737136" class="icon" viewBox="0 0 1024 1024" version="1.1" xmlns="http://www.w3.org/2000/svg" p-id="15284" xmlns:xlink="http://www.w3.org/1999/xlink" width="200" height="200"><path d="M819.781852 863.762529 599.938841 863.762529c-24.289196 0-43.971467-19.686365-43.971467-43.968397L555.967374 599.938841c0-24.281009 19.683295-43.968397 43.971467-43.968397l219.848127 0c24.281009 0 43.971467 19.687388 43.971467 43.968397L863.758436 819.794132C863.758436 844.075141 844.066955 863.762529 819.781852 863.762529L819.781852 863.762529zM808.483528 611.238189 611.238189 611.238189l0 197.255573 197.24841 0L808.486598 611.238189 808.483528 611.238189zM819.781852 468.028533 599.938841 468.028533c-24.289196 0-43.971467-19.686365-43.971467-43.968397L555.967374 204.205868c0-24.281009 19.683295-43.968397 43.971467-43.968397l219.848127 0c24.281009 0 43.971467 19.686365 43.971467 43.968397L863.758436 424.061159C863.758436 448.342168 844.066955 468.028533 819.781852 468.028533L819.781852 468.028533zM808.483528 215.505215 611.238189 215.505215l0 197.255573 197.24841 0L808.486598 215.505215 808.483528 215.505215zM424.061159 863.762529 204.212008 863.762529c-24.285103 0-43.970444-19.686365-43.970444-43.968397L160.241564 599.938841c0-24.281009 19.686365-43.968397 43.970444-43.968397l219.848127 0c24.281009 0 43.967374 19.687388 43.967374 43.968397L468.027509 819.794132C468.027509 844.075141 448.342168 863.762529 424.061159 863.762529L424.061159 863.762529zM412.760788 611.239212 215.512379 611.239212l0 197.254549 197.24841 0L412.760788 611.239212 412.760788 611.239212zM424.061159 468.028533 204.212008 468.028533c-24.285103 0-43.970444-19.686365-43.970444-43.968397L160.241564 204.205868c0-24.281009 19.686365-43.968397 43.970444-43.968397l219.848127 0c24.281009 0 43.967374 19.686365 43.967374 43.968397L468.027509 424.061159C468.027509 448.342168 448.342168 468.028533 424.061159 468.028533L424.061159 468.028533zM412.760788 215.506239 215.512379 215.506239l0 197.254549 197.24841 0L412.760788 215.506239 412.760788 215.506239z" fill="#272636" p-id="15285"></path></svg>