<?xml version="1.0" standalone="no"?><!DOCTYPE svg PUBLIC "-//W3C//DTD SVG 1.1//EN" "http://www.w3.org/Graphics/SVG/1.1/DTD/svg11.dtd"><svg t="1731305055363" class="icon" viewBox="0 0 1024 1024" version="1.1" xmlns="http://www.w3.org/2000/svg" p-id="31439" xmlns:xlink="http://www.w3.org/1999/xlink" width="200" height="200"><path d="M201.28 117.6c-24.32-16-4.16-58.24 23.68-53.44 76.48 21.6 139.2 74.08 195.2 128.48 60.8-11.04 122.72-10.72 183.52 0.16 55.84-54.24 118.4-106.88 194.88-128.32 27.68-6.08 48.32 36.32 24.64 52.8-53.12 28.8-106.88 56.96-152.16 97.6 149.12 68.16 253.92 228.64 239.2 394.24C902.4 789.6 755.36 952.32 576 975.68c-47.2 4.32-81.12-39.84-88.96-82.08-9.76-58.24-5.44-117.76-7.68-176.48-86.88-9.12-150.88-79.52-167.52-162.88 94.4-3.36 185.6 58.56 201.28 154.72 14.4-96.32 104.48-159.2 198.88-157.44-14.88 84.8-80 156.8-168 165.76 1.92 65.92-4.64 133.44 15.36 197.44 83.84-13.6 163.68-56 216-124 81.6-101.28 94.4-251.36 31.84-365.44-54.08-102.4-164.16-172.64-280.16-176.32-130.24-7.52-259.36 69.44-315.52 186.88-62.56 123.04-37.6 282.88 60.16 380.48 36 40.96 89.44 59.04 130.08 94.08 0.64 24-10.4 38.72-33.12 44C224.96 903.04 121.44 760 113.6 608.32c-13.92-165.6 89.76-325.6 239.04-393.44-44.8-40.96-98.4-68.8-151.36-97.28z" fill="#26BC93" p-id="31440"></path></svg>