<?xml version="1.0" standalone="no"?><!DOCTYPE svg PUBLIC "-//W3C//DTD SVG 1.1//EN" "http://www.w3.org/Graphics/SVG/1.1/DTD/svg11.dtd"><svg t="1731304830264" class="icon" viewBox="0 0 1024 1024" version="1.1" xmlns="http://www.w3.org/2000/svg" p-id="20172" xmlns:xlink="http://www.w3.org/1999/xlink" width="200" height="200"><path d="M772.634947 473.573053H278.312421c-19.779368 0-35.786105-15.521684-35.786105-34.681264 0-19.132632 16.006737-34.681263 35.786105-34.681263h494.322526c19.779368 0 35.786105 15.521684 35.786106 34.681263s-16.006737 34.681263-35.786106 34.681264z m0 173.163789H278.312421C258.533053 646.736842 242.526316 631.215158 242.526316 612.055579s16.006737-34.681263 35.786105-34.681263h494.322526c19.779368 0 35.786105 15.521684 35.786106 34.681263 0 19.132632-16.006737 34.681263-35.786106 34.681263z" p-id="20173"></path><path d="M512 862.315789c-29.776842 0-53.894737-16.222316-53.894737-36.24421v-412.564211c0-20.021895 24.117895-36.244211 53.894737-36.24421s53.894737 16.222316 53.894737 36.24421v412.564211c0 20.021895-24.117895 36.244211-53.894737 36.24421z" p-id="20174"></path><path d="M519.545263 431.157895c-8.353684 0-16.761263-3.179789-23.417263-9.647158a37.537684 37.537684 0 0 1-1.886316-51.2l173.460211-196.985263a33.387789 33.387789 0 0 1 48.774737-1.994106c14.012632 13.581474 14.874947 36.513684 1.913263 51.2l-173.460211 196.985264a33.684211 33.684211 0 0 1-25.357473 11.641263z" p-id="20175"></path><path d="M504.454737 431.157895a33.684211 33.684211 0 0 1-25.384421-11.641263l-173.460211-196.985264a37.537684 37.537684 0 0 1 1.886316-51.2 33.387789 33.387789 0 0 1 48.801684 1.994106l173.460211 196.985263c12.934737 14.686316 12.126316 37.618526-1.886316 51.2-6.386526 6.197895-14.740211 9.647158-23.444211 9.647158z" p-id="20176"></path><path d="M951.430737 901.739789a49.744842 49.744842 0 0 1-49.690948 49.690948H122.260211a49.744842 49.744842 0 0 1-49.690948-49.690948V437.248L0 364.678737v537.061052A122.421895 122.421895 0 0 0 122.260211 1024h779.479578A122.421895 122.421895 0 0 0 1024 901.739789v-100.271157l-72.569263-72.569264v172.840421zM901.739789 0H122.260211A122.421895 122.421895 0 0 0 0 122.260211v94.989473l72.569263 72.596211V122.260211c0-27.405474 22.285474-49.690947 49.690948-49.690948h779.479578c27.405474 0 49.690947 22.285474 49.690948 49.690948v459.183157L1024 654.066526V122.260211A122.421895 122.421895 0 0 0 901.739789 0z" p-id="20177"></path><path d="M137.162105 614.238316L0 476.806737V377.263158l137.054316 134.090105 0.107789 102.885053zM1024 673.684211l-137.162105-137.404632v-99.570526l137.081263 134.117052L1024 673.684211z" p-id="20178"></path></svg>