<?xml version="1.0" standalone="no"?><!DOCTYPE svg PUBLIC "-//W3C//DTD SVG 1.1//EN" "http://www.w3.org/Graphics/SVG/1.1/DTD/svg11.dtd"><svg t="1731305074716" class="icon" viewBox="0 0 1024 1024" version="1.1" xmlns="http://www.w3.org/2000/svg" p-id="32513" xmlns:xlink="http://www.w3.org/1999/xlink" width="200" height="200"><path d="M808.7770624 2.21224733L215.02384355 2.21224733c-58.55356245 0-106.02769294 47.47529557-106.02769294 106.02769294l0 805.80976981c0 58.56171235 47.47529557 106.02652899 106.02769294 106.02652899l593.75438394 0c58.54191957 0 106.02769294-47.46598059 106.02769294-106.02652899L914.80592043 108.23994027C914.80592043 49.68754176 867.32014592 2.21224733 808.7770624 2.21224733zM448.28453547 65.82932821l127.23066994 0c11.71280782 0 21.20646997 9.4948261 21.20646997 21.20530603s-9.49366215 21.20530603-21.20646997 21.20530603L448.28453547 108.23994027c-11.71280782 0-21.20530603-9.4948261-21.20530603-21.20530603S436.57172765 65.82932821 448.28453547 65.82932821zM511.90045241 956.45915705c-35.13376768 0-63.61591694-28.48564224-63.61591694-63.61591694 0-35.13260373 28.4821504-63.61940992 63.61591694-63.61940992 35.14424661 0 63.61591694 28.48680733 63.61591694 63.61940992C575.51637049 927.97351481 547.04353507 956.45915705 511.90045241 956.45915705zM787.57059243 744.40377117L236.22914845 744.40377117 236.22914845 171.85702229 787.57059243 171.85702229 787.57059243 744.40377117z" fill="#f39927" p-id="32514"></path></svg>