<?xml version="1.0" standalone="no"?><!DOCTYPE svg PUBLIC "-//W3C//DTD SVG 1.1//EN" "http://www.w3.org/Graphics/SVG/1.1/DTD/svg11.dtd"><svg t="1731309674201" class="icon" viewBox="0 0 1024 1024" version="1.1" xmlns="http://www.w3.org/2000/svg" p-id="36675" xmlns:xlink="http://www.w3.org/1999/xlink" width="200" height="200"><path d="M629.390222 168.163556C559.189333 149.560889 537.6 56.888889 406.385778 56.888889c47.502222 54.556444 25.6 102.456889-10.069334 113.436444C222.435556 216.746667 92.017778 363.264 100.266667 565.788444 108.771556 774.257778 286.862222 910.222222 517.063111 910.222222c230.172444 0 408.291556-135.964444 416.768-344.433778 8.391111-205.767111-126.350222-353.706667-304.440889-397.624888z m245.589334 287.402666c-0.056889 0.995556-1.052444 6.257778-6.257778 7.594667-0.256 0.056889-0.483556 0.170667-0.711111 0.284444-6.741333 3.015111-16.952889 11.491556-20.565334 35.470223-1.336889 10.837333-3.527111 22.158222-5.888 34.304l-0.028444 0.142222c-6.712889 34.56-17.436444 63.260444-31.914667 85.333333-20.252444 30.805333-47.786667 47.985778-79.644444 49.664-23.210667 1.194667-42.752 1.28-59.733334 0.199111-49.066667-3.072-77.198222-15.786667-97.109333-43.918222-26.823111-37.831111-39.054222-106.581333-54.983111-106.581333s-28.16 68.750222-54.954667 106.581333c-19.911111 28.131556-48.071111 40.846222-97.137777 43.918222a524.8 524.8 0 0 1-59.733334-0.199111c-31.857778-1.678222-59.363556-18.858667-79.644444-49.692444-14.449778-22.044444-25.173333-50.744889-31.886222-85.304889l-0.028445-0.142222a509.44 509.44 0 0 1-5.888-34.304c-3.612444-23.978667-13.852444-32.455111-20.565333-35.470223-0.256-0.113778-0.483556-0.227556-0.711111-0.284444-5.233778-1.308444-6.200889-6.599111-6.257778-7.594667-0.625778-9.699556-3.043556-31.317333-3.868445-44.8a9.927111 9.927111 0 0 1 9.216-11.491555c57.941333-3.640889 192.341333-10.865778 253.44 5.091555 18.261333 4.778667 70.485333 14.677333 98.019556 14.677334 27.562667 0 79.758222-9.898667 98.019556-14.677334 61.098667-15.957333 195.527111-8.732444 253.44-5.12 1.592889 0.113778 9.870222 1.422222 9.244444 11.52-0.853333 13.482667-3.242667 35.100444-3.868444 44.8z" fill="#d81e06" p-id="36676"></path><path d="M405.333333 451.584l-4.323555-0.853333c-21.76-4.067556-66.133333-9.671111-100.437334-7.537778-15.132444 0.967111-28.273778 3.413333-36.693333 8.192-20.906667 11.804444-22.613333 30.407111-19.086222 55.352889 1.024 7.253333 2.474667 15.047111 4.039111 23.352889 8.334222 44.544 28.074667 91.932444 69.176889 94.321777 18.432 1.080889 33.564444 1.137778 46.136889 0.341334 38.542222-2.417778 52.451556-12.913778 62.037333-27.136 54.784-81.408 33.137778-134.883556-20.849778-146.033778z m367.104-0.199111c-8.419556-4.778667-21.589333-7.224889-36.693333-8.192-34.332444-2.161778-78.677333 3.470222-100.408889 7.537778l-4.380444 0.853333c-53.959111 11.150222-75.633778 64.625778-20.821334 146.033778 9.585778 14.222222 23.466667 24.718222 62.037334 27.136 12.515556 0.796444 27.676444 0.739556 46.136889-0.341334 41.073778-2.389333 60.814222-49.777778 69.176888-94.321777 1.564444-8.305778 3.015111-16.099556 4.039112-23.324445 3.527111-24.974222 1.820444-43.576889-19.057778-55.381333z" fill="#d81e06" p-id="36677"></path></svg>