<?xml version="1.0" standalone="no"?><!DOCTYPE svg PUBLIC "-//W3C//DTD SVG 1.1//EN" "http://www.w3.org/Graphics/SVG/1.1/DTD/svg11.dtd"><svg t="1731309795625" class="icon" viewBox="0 0 1170 1024" version="1.1" xmlns="http://www.w3.org/2000/svg" p-id="40824" xmlns:xlink="http://www.w3.org/1999/xlink" width="228.515625" height="200"><path d="M0 0v844.726857h1170.285714V0H0z m335.798857 540.525714v24.722286H168.155429V279.478857h63.122285v236.544H335.725714v24.502857z m98.450286 24.722286h-63.049143V279.478857h63.049143v285.769143z m220.672 0H604.16L470.747429 279.478857h66.56l92.16 217.965714 92.086857-217.965714h66.56L654.848 565.248zM1002.057143 303.981714v24.722286h-120.539429v70.363429h114.907429v49.225142h-114.907429v67.730286H1002.057143v49.225143h-183.588572V279.478857h183.588572v24.502857z m-442.221714 528.091429h49.005714v155.648h-49.005714v-155.721143z m-204.653715 142.848h458.313143V1024H355.254857v-49.005714z" fill="#1296db" p-id="40825"></path></svg>