<?xml version="1.0" standalone="no"?><!DOCTYPE svg PUBLIC "-//W3C//DTD SVG 1.1//EN" "http://www.w3.org/Graphics/SVG/1.1/DTD/svg11.dtd"><svg t="1731295965116" class="icon" viewBox="0 0 1024 1024" version="1.1" xmlns="http://www.w3.org/2000/svg" p-id="12328" xmlns:xlink="http://www.w3.org/1999/xlink" width="200" height="200"><path d="M287.695238 102.4zM984.990476 209.67619c0-9.752381-4.87619-19.504762-9.752381-24.380952-68.266667-58.514286-156.038095-87.771429-248.685714-82.895238-78.019048 0-151.161905 24.380952-214.552381 68.266667-68.266667-43.885714-146.285714-73.142857-224.304762-68.266667C195.047619 102.4 107.27619 136.533333 39.009524 195.047619c-4.87619 9.752381-9.752381 14.628571-9.752381 24.380952L48.761905 892.342857c0 9.752381 4.87619 19.504762 14.628571 29.257143 4.87619 4.87619 9.752381 4.87619 14.628572 4.87619 4.87619 0 9.752381 0 14.628571-4.87619l63.390476-43.885714c43.885714-24.380952 87.771429-39.009524 136.533334-39.009524 48.761905 0 97.52381 14.628571 136.533333 39.009524 0 0 4.87619 0 4.87619 4.87619l53.638096 19.504762c4.87619 4.87619 4.87619 14.628571 14.628571 14.628572 4.87619 4.87619 9.752381 4.87619 14.628571 4.87619 4.87619 0 9.752381 0 14.628572-4.87619l63.390476-39.009524c39.009524-24.380952 87.771429-39.009524 136.533333-39.009524 48.761905 0 97.52381 14.628571 136.533334 39.009524 0 0 4.87619 0 4.87619 4.87619l78.019048 29.257143c9.752381 4.87619 19.504762 0 29.257143-4.87619 9.752381-4.87619 14.628571-14.628571 14.628571-24.380953l-9.752381-672.914286zM292.571429 775.314286c-58.514286 0-117.028571 14.628571-170.666667 48.761904l-14.628572 9.752381-14.628571-599.771428c53.638095-43.885714 121.904762-68.266667 195.047619-68.266667 63.390476 0 126.780952 19.504762 180.419048 53.638095l19.504762 614.4-24.380953-9.752381c-53.638095-34.133333-112.152381-48.761905-170.666666-48.761904z m609.523809 48.761904c-48.761905-29.257143-107.27619-48.761905-165.790476-48.761904-58.514286 0-117.028571 14.628571-170.666667 48.761904l-9.752381 4.876191-9.752381-599.771429c53.638095-39.009524 117.028571-58.514286 180.419048-58.514285 68.266667 0 141.409524 19.504762 195.047619 63.390476l9.752381 604.647619-29.257143-14.628572z" fill="#606060" p-id="12329"></path><path d="M204.8 316.952381c-14.628571 9.752381-19.504762 29.257143-9.752381 43.885714 4.87619 9.752381 14.628571 14.628571 24.380952 14.628572 4.87619 0 9.752381 0 19.504762-4.876191 34.133333-24.380952 78.019048-24.380952 112.152381 0 14.628571 9.752381 34.133333 4.87619 43.885715-9.752381 9.752381-14.628571 4.87619-34.133333-9.752381-43.885714-58.514286-39.009524-126.780952-39.009524-180.419048 0zM643.657143 316.952381c-14.628571 9.752381-19.504762 29.257143-9.752381 43.885714 9.752381 14.628571 29.257143 19.504762 43.885714 9.752381 34.133333-24.380952 78.019048-24.380952 112.152381 0 4.87619 4.87619 9.752381 4.87619 19.504762 4.876191s19.504762-4.87619 24.380952-14.628572c9.752381-14.628571 4.87619-34.133333-9.752381-43.885714-53.638095-39.009524-126.780952-39.009524-180.419047 0zM204.8 463.238095c-14.628571 9.752381-19.504762 29.257143-9.752381 43.885715 4.87619 9.752381 14.628571 14.628571 24.380952 14.628571 4.87619 0 9.752381 0 19.504762-4.876191 34.133333-24.380952 78.019048-24.380952 112.152381 0 14.628571 9.752381 34.133333 4.87619 43.885715-9.75238 9.752381-14.628571 4.87619-34.133333-9.752381-43.885715-58.514286-39.009524-126.780952-39.009524-180.419048 0zM643.657143 463.238095c-14.628571 9.752381-19.504762 29.257143-9.752381 43.885715 9.752381 14.628571 29.257143 19.504762 43.885714 9.75238 34.133333-24.380952 78.019048-24.380952 112.152381 0 4.87619 4.87619 9.752381 4.87619 19.504762 4.876191s19.504762-4.87619 24.380952-14.628571c9.752381-14.628571 4.87619-34.133333-9.752381-43.885715-53.638095-39.009524-126.780952-39.009524-180.419047 0zM204.8 609.52381c-14.628571 9.752381-19.504762 29.257143-9.752381 43.885714 4.87619 9.752381 14.628571 14.628571 24.380952 14.628571 4.87619 0 9.752381 0 19.504762-4.87619 34.133333-24.380952 78.019048-24.380952 112.152381 0 14.628571 9.752381 34.133333 4.87619 43.885715-9.752381 9.752381-14.628571 4.87619-34.133333-9.752381-43.885714-58.514286-39.009524-126.780952-39.009524-180.419048 0zM643.657143 609.52381c-14.628571 9.752381-19.504762 29.257143-9.752381 43.885714 4.87619 9.752381 14.628571 14.628571 24.380952 14.628571 4.87619 0 9.752381 0 19.504762-4.87619 34.133333-24.380952 78.019048-24.380952 112.152381 0 14.628571 9.752381 34.133333 4.87619 43.885714-9.752381 9.752381-14.628571 4.87619-34.133333-9.752381-43.885714-53.638095-39.009524-126.780952-39.009524-180.419047 0z" fill="#606060" p-id="12330"></path></svg>